<svg id="Layer_1" data-name="Layer 1" xmlns="http://www.w3.org/2000/svg" viewBox="0 0 118.9 118.9"><defs><style>.cls-1{fill:#939393;}</style></defs><title>pp-bg</title><path class="cls-1" d="M108.1,26.1c-.49-.4-1-.78-1.49-1.16L23.32,108.23c.38.5.76,1,1.16,1.49Z" transform="translate(-11.35 -12.97)"/><path class="cls-1" d="M87.75,15.41c-.69-.21-1.38-.39-2.08-.57L13.22,87.29c.18.7.36,1.39.57,2.08Z" transform="translate(-11.35 -12.97)"/><path class="cls-1" d="M102,21.81c-.55-.34-1.1-.67-1.66-1L19.2,102c.32.56.65,1.11,1,1.66Z" transform="translate(-11.35 -12.97)"/><path class="cls-1" d="M95.29,18.22c-.61-.28-1.23-.55-1.85-.8L15.8,95.06c.25.62.52,1.24.8,1.85Z" transform="translate(-11.35 -12.97)"/><path class="cls-1" d="M79.26,13.55c-.79-.11-1.58-.2-2.37-.28L11.65,78.51c.08.79.17,1.58.28,2.37Z" transform="translate(-11.35 -12.97)"/><path class="cls-1" d="M112.85,30.37l-.67-.65L28.1,113.8l.65.67.67.65L113.5,31Z" transform="translate(-11.35 -12.97)"/><path class="cls-1" d="M69.5,13c-.93,0-1.85.06-2.78.12L11.47,68.34c-.06.93-.1,1.85-.12,2.78Z" transform="translate(-11.35 -12.97)"/><path class="cls-1" d="M12.79,59.33,57.71,14.41c-1.19.26-2.38.57-3.57.91L13.7,55.76C13.36,57,13.05,58.14,12.79,59.33Z" transform="translate(-11.35 -12.97)"/><path class="cls-1" d="M130.13,76.5c.06-.93.1-1.85.12-2.78L72.1,131.87c.93,0,1.85-.06,2.78-.12Z" transform="translate(-11.35 -12.97)"/><path class="cls-1" d="M130,66.33c-.08-.79-.17-1.58-.28-2.37L62.34,131.29c.79.11,1.58.2,2.37.28Z" transform="translate(-11.35 -12.97)"/><path class="cls-1" d="M40.6,21.18a59.78,59.78,0,0,0-21,21Z" transform="translate(-11.35 -12.97)"/><path class="cls-1" d="M127.9,89.08c.34-1.19.65-2.38.91-3.57L83.89,130.43c1.19-.26,2.38-.57,3.57-.91Z" transform="translate(-11.35 -12.97)"/><path class="cls-1" d="M101,123.66a59.78,59.78,0,0,0,21-21Z" transform="translate(-11.35 -12.97)"/><path class="cls-1" d="M122.4,42.84c-.32-.56-.65-1.11-1-1.66L39.56,123c.55.34,1.1.67,1.66,1Z" transform="translate(-11.35 -12.97)"/><path class="cls-1" d="M118.28,36.61c-.38-.5-.76-1-1.16-1.49L33.5,118.74c.49.4,1,.78,1.49,1.16Z" transform="translate(-11.35 -12.97)"/><path class="cls-1" d="M128.38,57.55c-.18-.7-.36-1.39-.57-2.08l-74,74c.69.21,1.38.39,2.08.57Z" transform="translate(-11.35 -12.97)"/><path class="cls-1" d="M125.8,49.78c-.25-.62-.52-1.24-.8-1.85L46.31,126.62c.61.28,1.23.55,1.85.8Z" transform="translate(-11.35 -12.97)"/></svg>